ISO-10303-21;
HEADER;
FILE_DESCRIPTION(('Open CASCADE Model'),'2;1');
FILE_NAME('Open CASCADE Shape Model','2026-08-19T17:42:29',('Author'),(
    'Open CASCADE'),'Open CASCADE STEP processor 7.9','Open CASCADE 7.9'
  ,'Unknown');
FILE_SCHEMA(('AUTOMOTIVE_DESIGN { 1 0 10303 214 1 1 1 1 }'));
ENDSEC;
DATA;
#1 = APPLICATION_PROTOCOL_DEFINITION('international standard',
  'automotive_design',2000,#2);
#2 = APPLICATION_CONTEXT(
  'core data for automotive mechanical design processes');
#3 = SHAPE_DEFINITION_REPRESENTATION(#4,#10);
#4 = PRODUCT_DEFINITION_SHAPE('','',#5);
#5 = PRODUCT_DEFINITION('design','',#6,#9);
#6 = PRODUCT_DEFINITION_FORMATION('','',#7);
#7 = PRODUCT('Open CASCADE STEP translator 7.9 1',
  'Open CASCADE STEP translator 7.9 1','',(#8));
#8 = PRODUCT_CONTEXT('',#2,'mechanical');
#9 = PRODUCT_DEFINITION_CONTEXT('part definition',#2,'design');
#10 = ADVANCED_BREP_SHAPE_REPRESENTATION('',(#11,#15),#325);
#11 = AXIS2_PLACEMENT_3D('',#12,#13,#14);
#12 = CARTESIAN_POINT('',(0.,0.,0.));
#13 = DIRECTION('',(0.,0.,1.));
#14 = DIRECTION('',(1.,0.,-0.));
#15 = MANIFOLD_SOLID_BREP('',#16);
#16 = CLOSED_SHELL('',(#17,#113,#203,#319));
#17 = ADVANCED_FACE('',(#18),#32,.F.);
#18 = FACE_BOUND('',#19,.F.);
#19 = EDGE_LOOP('',(#20,#54,#87));
#20 = ORIENTED_EDGE('',*,*,#21,.T.);
#21 = EDGE_CURVE('',#22,#24,#26,.T.);
#22 = VERTEX_POINT('',#23);
#23 = CARTESIAN_POINT('',(10.,0.,23.542));
#24 = VERTEX_POINT('',#25);
#25 = CARTESIAN_POINT('',(8.071149163656,0.,23.542));
#26 = SURFACE_CURVE('',#27,(#31,#43),.PCURVE_S1.);
#27 = LINE('',#28,#29);
#28 = CARTESIAN_POINT('',(0.,0.,23.542));
#29 = VECTOR('',#30,1.);
#30 = DIRECTION('',(-1.,-0.,-0.));
#31 = PCURVE('',#32,#37);
#32 = PLANE('',#33);
#33 = AXIS2_PLACEMENT_3D('',#34,#35,#36);
#34 = CARTESIAN_POINT('',(-7.332118673134E-16,0.,13.542));
#35 = DIRECTION('',(-0.,-1.,-0.));
#36 = DIRECTION('',(0.,0.,-1.));
#37 = DEFINITIONAL_REPRESENTATION('',(#38),#42);
#38 = LINE('',#39,#40);
#39 = CARTESIAN_POINT('',(-10.,7.332118673134E-16));
#40 = VECTOR('',#41,1.);
#41 = DIRECTION('',(0.,-1.));
#42 = ( GEOMETRIC_REPRESENTATION_CONTEXT(2) 
PARAMETRIC_REPRESENTATION_CONTEXT() REPRESENTATION_CONTEXT('2D SPACE',''
  ) );
#43 = PCURVE('',#44,#49);
#44 = CYLINDRICAL_SURFACE('',#45,10.);
#45 = AXIS2_PLACEMENT_3D('',#46,#47,#48);
#46 = CARTESIAN_POINT('',(0.,7.000655640532E-14,13.542));
#47 = DIRECTION('',(-1.,-0.,-0.));
#48 = DIRECTION('',(0.,1.,0.));
#49 = DEFINITIONAL_REPRESENTATION('',(#50),#53);
#50 = B_SPLINE_CURVE_WITH_KNOTS('',1,(#51,#52),.UNSPECIFIED.,.F.,.F.,(2,
    2),(-12.,6.E-07),.PIECEWISE_BEZIER_KNOTS.);
#51 = CARTESIAN_POINT('',(4.712388980385,-12.));
#52 = CARTESIAN_POINT('',(4.712388980385,6.E-07));
#53 = ( GEOMETRIC_REPRESENTATION_CONTEXT(2) 
PARAMETRIC_REPRESENTATION_CONTEXT() REPRESENTATION_CONTEXT('2D SPACE',''
  ) );
#54 = ORIENTED_EDGE('',*,*,#55,.T.);
#55 = EDGE_CURVE('',#24,#56,#58,.T.);
#56 = VERTEX_POINT('',#57);
#57 = CARTESIAN_POINT('',(10.,0.,22.066726762325));
#58 = SURFACE_CURVE('',#59,(#64,#75),.PCURVE_S1.);
#59 = CIRCLE('',#60,14.922358381176);
#60 = AXIS2_PLACEMENT_3D('',#61,#62,#63);
#61 = CARTESIAN_POINT('',(0.,0.,10.990771740014));
#62 = DIRECTION('',(0.,1.,0.));
#63 = DIRECTION('',(-0.676404358427,0.,-0.736530477239));
#64 = PCURVE('',#32,#65);
#65 = DEFINITIONAL_REPRESENTATION('',(#66),#74);
#66 = ( BOUNDED_CURVE() B_SPLINE_CURVE(2,(#67,#68,#69,#70,#71,#72,#73),
.UNSPECIFIED.,.T.,.F.) B_SPLINE_CURVE_WITH_KNOTS((1,2,2,2,2,1),(
    -2.094395102393,0.,2.094395102393,4.188790204786,6.28318530718,
8.377580409573),.UNSPECIFIED.) CURVE() GEOMETRIC_REPRESENTATION_ITEM() 
RATIONAL_B_SPLINE_CURVE((1.,0.5,1.,0.5,1.,0.5,1.)) REPRESENTATION_ITEM(
  '') );
#67 = CARTESIAN_POINT('',(13.542,-10.09354824703));
#68 = CARTESIAN_POINT('',(-3.940538392508,-29.13012331512));
#69 = CARTESIAN_POINT('',(-11.68542680627,-4.471513410532));
#70 = CARTESIAN_POINT('',(-19.43031522004,20.187096494065));
#71 = CARTESIAN_POINT('',(5.797111586233,14.565061657564));
#72 = CARTESIAN_POINT('',(31.024538392507,8.943026821064));
#73 = CARTESIAN_POINT('',(13.542,-10.09354824703));
#74 = ( GEOMETRIC_REPRESENTATION_CONTEXT(2) 
PARAMETRIC_REPRESENTATION_CONTEXT() REPRESENTATION_CONTEXT('2D SPACE',''
  ) );
#75 = PCURVE('',#76,#81);
#76 = CYLINDRICAL_SURFACE('',#77,14.922358381176);
#77 = AXIS2_PLACEMENT_3D('',#78,#79,#80);
#78 = CARTESIAN_POINT('',(0.,0.,10.990771740014));
#79 = DIRECTION('',(0.,1.,0.));
#80 = DIRECTION('',(3.582231068043E-03,-0.,0.99999358379));
#81 = DEFINITIONAL_REPRESENTATION('',(#82),#86);
#82 = LINE('',#83,#84);
#83 = CARTESIAN_POINT('',(-2.402305134042,0.));
#84 = VECTOR('',#85,1.);
#85 = DIRECTION('',(1.,0.));
#86 = ( GEOMETRIC_REPRESENTATION_CONTEXT(2) 
PARAMETRIC_REPRESENTATION_CONTEXT() REPRESENTATION_CONTEXT('2D SPACE',''
  ) );
#87 = ORIENTED_EDGE('',*,*,#88,.T.);
#88 = EDGE_CURVE('',#56,#22,#89,.T.);
#89 = SURFACE_CURVE('',#90,(#94,#101),.PCURVE_S1.);
#90 = LINE('',#91,#92);
#91 = CARTESIAN_POINT('',(10.,0.,13.542));
#92 = VECTOR('',#93,1.);
#93 = DIRECTION('',(0.,0.,1.));
#94 = PCURVE('',#32,#95);
#95 = DEFINITIONAL_REPRESENTATION('',(#96),#100);
#96 = LINE('',#97,#98);
#97 = CARTESIAN_POINT('',(0.,10.));
#98 = VECTOR('',#99,1.);
#99 = DIRECTION('',(-1.,0.));
#100 = ( GEOMETRIC_REPRESENTATION_CONTEXT(2) 
PARAMETRIC_REPRESENTATION_CONTEXT() REPRESENTATION_CONTEXT('2D SPACE',''
  ) );
#101 = PCURVE('',#102,#107);
#102 = CYLINDRICAL_SURFACE('',#103,10.);
#103 = AXIS2_PLACEMENT_3D('',#104,#105,#106);
#104 = CARTESIAN_POINT('',(7.000655640532E-14,0.,13.542));
#105 = DIRECTION('',(-0.,-0.,-1.));
#106 = DIRECTION('',(1.,0.,0.));
#107 = DEFINITIONAL_REPRESENTATION('',(#108),#112);
#108 = LINE('',#109,#110);
#109 = CARTESIAN_POINT('',(6.28318530718,0.));
#110 = VECTOR('',#111,1.);
#111 = DIRECTION('',(-0.,-1.));
#112 = ( GEOMETRIC_REPRESENTATION_CONTEXT(2) 
PARAMETRIC_REPRESENTATION_CONTEXT() REPRESENTATION_CONTEXT('2D SPACE',''
  ) );
#113 = ADVANCED_FACE('',(#114),#44,.F.);
#114 = FACE_BOUND('',#115,.F.);
#115 = EDGE_LOOP('',(#116,#117,#149));
#116 = ORIENTED_EDGE('',*,*,#21,.F.);
#117 = ORIENTED_EDGE('',*,*,#118,.F.);
#118 = EDGE_CURVE('',#119,#22,#121,.T.);
#119 = VERTEX_POINT('',#120);
#120 = CARTESIAN_POINT('',(9.198697229226,3.922240348107,22.740697225786
    ));
#121 = SURFACE_CURVE('',#122,(#127,#138),.PCURVE_S1.);
#122 = ELLIPSE('',#123,14.142135623731,10.);
#123 = AXIS2_PLACEMENT_3D('',#124,#125,#126);
#124 = CARTESIAN_POINT('',(7.000655640532E-14,0.,13.542));
#125 = DIRECTION('',(0.707106781187,0.,-0.707106781187));
#126 = DIRECTION('',(-0.707106781187,-0.,-0.707106781187));
#127 = PCURVE('',#44,#128);
#128 = DEFINITIONAL_REPRESENTATION('',(#129),#137);
#129 = B_SPLINE_CURVE_WITH_KNOTS('',6,(#130,#131,#132,#133,#134,#135,
    #136),.UNSPECIFIED.,.F.,.F.,(7,7),(2.591493125696,3.141592653589),
  .PIECEWISE_BEZIER_KNOTS.);
#130 = CARTESIAN_POINT('',(5.262488508279,-8.524724958781));
#131 = CARTESIAN_POINT('',(5.17080525363,-9.004019412739));
#132 = CARTESIAN_POINT('',(5.079121998981,-9.397325059136));
#133 = CARTESIAN_POINT('',(4.987438744332,-9.697390335473));
#134 = CARTESIAN_POINT('',(4.895755489683,-9.899130213045));
#135 = CARTESIAN_POINT('',(4.804072235035,-10.));
#136 = CARTESIAN_POINT('',(4.712388980386,-10.));
#137 = ( GEOMETRIC_REPRESENTATION_CONTEXT(2) 
PARAMETRIC_REPRESENTATION_CONTEXT() REPRESENTATION_CONTEXT('2D SPACE',''
  ) );
#138 = PCURVE('',#102,#139);
#139 = DEFINITIONAL_REPRESENTATION('',(#140),#148);
#140 = B_SPLINE_CURVE_WITH_KNOTS('',6,(#141,#142,#143,#144,#145,#146,
    #147),.UNSPECIFIED.,.F.,.F.,(7,7),(2.591493125696,3.141592653589),
  .PIECEWISE_BEZIER_KNOTS.);
#141 = CARTESIAN_POINT('',(5.733085779286,-8.524724958781));
#142 = CARTESIAN_POINT('',(5.824769033935,-9.004019412739));
#143 = CARTESIAN_POINT('',(5.916452288584,-9.397325059136));
#144 = CARTESIAN_POINT('',(6.008135543232,-9.697390335473));
#145 = CARTESIAN_POINT('',(6.099818797881,-9.899130213045));
#146 = CARTESIAN_POINT('',(6.19150205253,-9.999999999999));
#147 = CARTESIAN_POINT('',(6.283185307179,-10.));
#148 = ( GEOMETRIC_REPRESENTATION_CONTEXT(2) 
PARAMETRIC_REPRESENTATION_CONTEXT() REPRESENTATION_CONTEXT('2D SPACE',''
  ) );
#149 = ORIENTED_EDGE('',*,*,#150,.T.);
#150 = EDGE_CURVE('',#119,#24,#151,.T.);
#151 = SURFACE_CURVE('',#152,(#167,#185),.PCURVE_S1.);
#152 = B_SPLINE_CURVE_WITH_KNOTS('',7,(#153,#154,#155,#156,#157,#158,
    #159,#160,#161,#162,#163,#164,#165,#166),.UNSPECIFIED.,.F.,.F.,(8,6,
    8),(0.,0.888757118961,1.),.UNSPECIFIED.);
#153 = CARTESIAN_POINT('',(10.000000000008,5.227717822123,22.06672676232
    ));
#154 = CARTESIAN_POINT('',(9.615457828038,4.661568330486,22.413913231745
    ));
#155 = CARTESIAN_POINT('',(9.243797722552,4.062056260336,22.721195242518
    ));
#156 = CARTESIAN_POINT('',(8.897776129665,3.432289894338,22.984196259069
    ));
#157 = CARTESIAN_POINT('',(8.592802103085,2.775408813522,23.19916441217)
  );
#158 = CARTESIAN_POINT('',(8.346681468934,2.093745395867,23.36313463713)
  );
#159 = CARTESIAN_POINT('',(8.177950957772,1.386244223669,23.472986789414
    ));
#160 = CARTESIAN_POINT('',(8.094537289792,0.556459204804,23.526934144779
    ));
#161 = CARTESIAN_POINT('',(8.08676865141,0.463967114182,23.531947052246)
  );
#162 = CARTESIAN_POINT('',(8.080532003625,0.371325576073,23.535964545863
    ));
#163 = CARTESIAN_POINT('',(8.075843507258,0.278570560651,23.538981302401
    ));
#164 = CARTESIAN_POINT('',(8.072714031717,0.185739041274,23.54099373748)
  );
#165 = CARTESIAN_POINT('',(8.071149154991,9.286899448223E-02,
    23.542000005572));
#166 = CARTESIAN_POINT('',(8.071149163656,-6.000000028353E-07,23.542));
#167 = PCURVE('',#44,#168);
#168 = DEFINITIONAL_REPRESENTATION('',(#169),#184);
#169 = B_SPLINE_CURVE_WITH_KNOTS('',7,(#170,#171,#172,#173,#174,#175,
    #176,#177,#178,#179,#180,#181,#182,#183),.UNSPECIFIED.,.F.,.F.,(8,6,
    8),(0.278117723636,0.888757120215,0.999999897328),.UNSPECIFIED.);
#170 = CARTESIAN_POINT('',(5.115437100252,-9.198697263583));
#171 = CARTESIAN_POINT('',(5.068802789972,-8.965056530317));
#172 = CARTESIAN_POINT('',(5.021772608944,-8.74807784686));
#173 = CARTESIAN_POINT('',(4.974301594775,-8.552873947723));
#174 = CARTESIAN_POINT('',(4.926305689363,-8.385009786594));
#175 = CARTESIAN_POINT('',(4.877642687749,-8.250343452618));
#176 = CARTESIAN_POINT('',(4.828088180927,-8.154752138992));
#177 = CARTESIAN_POINT('',(4.768061019031,-8.094537298356));
#178 = CARTESIAN_POINT('',(4.758798786388,-8.08676866575));
#179 = CARTESIAN_POINT('',(4.749526799372,-8.080532020893));
#180 = CARTESIAN_POINT('',(4.740247376457,-8.075843524567));
#181 = CARTESIAN_POINT('',(4.730962923001,-8.072714046159));
#182 = CARTESIAN_POINT('',(4.721675931261,-8.071149163657));
#183 = CARTESIAN_POINT('',(4.712388980385,-8.071149163656));
#184 = ( GEOMETRIC_REPRESENTATION_CONTEXT(2) 
PARAMETRIC_REPRESENTATION_CONTEXT() REPRESENTATION_CONTEXT('2D SPACE',''
  ) );
#185 = PCURVE('',#76,#186);
#186 = DEFINITIONAL_REPRESENTATION('',(#187),#202);
#187 = B_SPLINE_CURVE_WITH_KNOTS('',7,(#188,#189,#190,#191,#192,#193,
    #194,#195,#196,#197,#198,#199,#200,#201),.UNSPECIFIED.,.F.,.F.,(8,6,
    8),(0.278117723636,0.888757117998,0.999999897328),.UNSPECIFIED.);
#188 = CARTESIAN_POINT('',(0.660627702351,3.922240321984));
#189 = CARTESIAN_POINT('',(0.640743258684,3.49326540509));
#190 = CARTESIAN_POINT('',(0.622637993965,3.050697250015));
#191 = CARTESIAN_POINT('',(0.606617874358,2.595342057905));
#192 = CARTESIAN_POINT('',(0.593019654556,2.127755136717));
#193 = CARTESIAN_POINT('',(0.582207565223,1.648014960443));
#194 = CARTESIAN_POINT('',(0.57456625115,1.155466297928));
#195 = CARTESIAN_POINT('',(0.569760659367,0.55645929));
#196 = CARTESIAN_POINT('',(0.569141080065,0.463967284914));
#197 = CARTESIAN_POINT('',(0.568643932143,0.371325832584));
#198 = CARTESIAN_POINT('',(0.568270318763,0.278570903085));
#199 = CARTESIAN_POINT('',(0.568020982165,0.18573946967));
#200 = CARTESIAN_POINT('',(0.567896303668,9.286950877045E-02));
#201 = CARTESIAN_POINT('',(0.567896303668,7.356165891829E-16));
#202 = ( GEOMETRIC_REPRESENTATION_CONTEXT(2) 
PARAMETRIC_REPRESENTATION_CONTEXT() REPRESENTATION_CONTEXT('2D SPACE',''
  ) );
#203 = ADVANCED_FACE('',(#204),#76,.T.);
#204 = FACE_BOUND('',#205,.T.);
#205 = EDGE_LOOP('',(#206,#317,#318));
#206 = ORIENTED_EDGE('',*,*,#207,.T.);
#207 = EDGE_CURVE('',#56,#119,#208,.T.);
#208 = SURFACE_CURVE('',#209,(#247,#288),.PCURVE_S1.);
#209 = B_SPLINE_CURVE_WITH_KNOTS('',6,(#210,#211,#212,#213,#214,#215,
    #216,#217,#218,#219,#220,#221,#222,#223,#224,#225,#226,#227,#228,
    #229,#230,#231,#232,#233,#234,#235,#236,#237,#238,#239,#240,#241,
    #242,#243,#244,#245,#246),.UNSPECIFIED.,.F.,.F.,(7,5,5,5,5,5,5,7),(
    0.,0.204733259466,0.421542707555,0.618945612893,0.693895000049,
    0.794918494951,0.87518140388,1.),.UNSPECIFIED.);
#210 = CARTESIAN_POINT('',(10.,-2.449293598295E-15,22.066726762325));
#211 = CARTESIAN_POINT('',(10.,0.483505333305,22.066726762325));
#212 = CARTESIAN_POINT('',(9.971947003595,0.966227687529,22.092054539019
    ));
#213 = CARTESIAN_POINT('',(9.916009412703,1.44626981275,22.142558434265)
  );
#214 = CARTESIAN_POINT('',(9.832507149283,1.921643495453,22.216981139317
    ));
#215 = CARTESIAN_POINT('',(9.721964110901,2.390095875021,22.312956054566
    ));
#216 = CARTESIAN_POINT('',(9.441167088341,3.334866997054,22.548308390381
    ));
#217 = CARTESIAN_POINT('',(9.267652806886,3.810434421151,22.690014892628
    ));
#218 = CARTESIAN_POINT('',(9.065576962078,4.275169377931,22.849297149429
    ));
#219 = CARTESIAN_POINT('',(8.835063132233,4.728324207495,23.022894806666
    ));
#220 = CARTESIAN_POINT('',(8.576005132814,5.168841525671,23.207514151023
    ));
#221 = CARTESIAN_POINT('',(8.025934708536,5.983634207134,23.574909809378
    ));
#222 = CARTESIAN_POINT('',(7.739727703925,6.36050209462,23.756458491607)
  );
#223 = CARTESIAN_POINT('',(7.428676754027,6.725596278743,23.942295034004
    ));
#224 = CARTESIAN_POINT('',(7.091598052123,7.07810448917,24.130246472308)
  );
#225 = CARTESIAN_POINT('',(6.72705921338,7.416554115747,24.317900036045)
  );
#226 = CARTESIAN_POINT('',(6.184113452551,7.860917206287,24.572404577335
    ));
#227 = CARTESIAN_POINT('',(6.030494860808,7.980862739745,24.641994412896
    ));
#228 = CARTESIAN_POINT('',(5.872572585637,8.098350763465,24.710984745008
    ));
#229 = CARTESIAN_POINT('',(5.710248286927,8.213240382602,24.779210234959
    ));
#230 = CARTESIAN_POINT('',(5.543425134724,8.325367332133,24.846491729626
    ));
#231 = CARTESIAN_POINT('',(5.140956189402,8.581702034184,25.001791784005
    ));
#232 = CARTESIAN_POINT('',(4.901502699166,8.723535340936,25.088902701531
    ));
#233 = CARTESIAN_POINT('',(4.653478757749,8.859532688131,25.173465289596
    ));
#234 = CARTESIAN_POINT('',(4.396744245626,8.989113839941,25.254928593036
    ));
#235 = CARTESIAN_POINT('',(4.131187954327,9.111628654847,25.332695806597
    ));
#236 = CARTESIAN_POINT('',(3.638670331644,9.317506954056,25.464465483212
    ));
#237 = CARTESIAN_POINT('',(3.41495384884,9.403758177667,25.520077751654)
  );
#238 = CARTESIAN_POINT('',(3.185739516421,9.484658580401,25.572583836537
    ));
#239 = CARTESIAN_POINT('',(2.951207897681,9.559769243241,25.621611206992
    ));
#240 = CARTESIAN_POINT('',(2.711559234961,9.628661624928,25.666796720685
    ));
#241 = CARTESIAN_POINT('',(2.086715091073,9.787728012909,25.771539333344
    ));
#242 = CARTESIAN_POINT('',(1.693859620004,9.868667844201,25.825269754203
    ));
#243 = CARTESIAN_POINT('',(1.291204483162,9.931528640091,25.867253675811
    ));
#244 = CARTESIAN_POINT('',(0.8816207493,9.97480251705,25.896244740099));
#245 = CARTESIAN_POINT('',(0.46804976064,9.997640865248,25.911549193642)
  );
#246 = CARTESIAN_POINT('',(5.345533580158E-02,9.999857125333,
    25.913034376201));
#247 = PCURVE('',#76,#248);
#248 = DEFINITIONAL_REPRESENTATION('',(#249),#287);
#249 = B_SPLINE_CURVE_WITH_KNOTS('',6,(#250,#251,#252,#253,#254,#255,
    #256,#257,#258,#259,#260,#261,#262,#263,#264,#265,#266,#267,#268,
    #269,#270,#271,#272,#273,#274,#275,#276,#277,#278,#279,#280,#281,
    #282,#283,#284,#285,#286),.UNSPECIFIED.,.F.,.F.,(7,5,5,5,5,5,5,7),(
    0.,0.204733259466,0.421542707555,0.618945612893,0.693895000049,
    0.794918494951,0.87518140388,1.),.UNSPECIFIED.);
#250 = CARTESIAN_POINT('',(0.730808900346,-2.449293598295E-15));
#251 = CARTESIAN_POINT('',(0.730808900346,0.483505333305));
#252 = CARTESIAN_POINT('',(0.728276133987,0.966227687529));
#253 = CARTESIAN_POINT('',(0.723225691032,1.44626981275));
#254 = CARTESIAN_POINT('',(0.715730265642,1.921643495453));
#255 = CARTESIAN_POINT('',(0.705921445893,2.390095875021));
#256 = CARTESIAN_POINT('',(0.681368716978,3.334866997054));
#257 = CARTESIAN_POINT('',(0.666357117049,3.810434421151));
#258 = CARTESIAN_POINT('',(0.649118418618,4.275169377931));
#259 = CARTESIAN_POINT('',(0.62978882479,4.728324207495));
#260 = CARTESIAN_POINT('',(0.608480791608,5.168841525671));
#261 = CARTESIAN_POINT('',(0.56415261447,5.983634207134));
#262 = CARTESIAN_POINT('',(0.541446057291,6.36050209462));
#263 = CARTESIAN_POINT('',(0.517178062455,6.725596278743));
#264 = CARTESIAN_POINT('',(0.491334818875,7.07810448917));
#265 = CARTESIAN_POINT('',(0.463877811174,7.416554115747));
#266 = CARTESIAN_POINT('',(0.423694120061,7.860917206287));
#267 = CARTESIAN_POINT('',(0.412393496413,7.980862739745));
#268 = CARTESIAN_POINT('',(0.400846396077,8.098350763465));
#269 = CARTESIAN_POINT('',(0.389048544676,8.213240382602));
#270 = CARTESIAN_POINT('',(0.37699550855,8.325367332133));
#271 = CARTESIAN_POINT('',(0.348086381852,8.581702034184));
#272 = CARTESIAN_POINT('',(0.33101410711,8.723535340936));
#273 = CARTESIAN_POINT('',(0.31345924587,8.859532688131));
#274 = CARTESIAN_POINT('',(0.295415757778,8.989113839941));
#275 = CARTESIAN_POINT('',(0.27687760874,9.111628654847));
#276 = CARTESIAN_POINT('',(0.242711425546,9.317506954056));
#277 = CARTESIAN_POINT('',(0.227265567551,9.403758177667));
#278 = CARTESIAN_POINT('',(0.211511369634,9.484658580401));
#279 = CARTESIAN_POINT('',(0.195459417723,9.559769243241));
#280 = CARTESIAN_POINT('',(0.179120099656,9.628661624928));
#281 = CARTESIAN_POINT('',(0.136662848038,9.787728012909));
#282 = CARTESIAN_POINT('',(0.110103205015,9.868667844201));
#283 = CARTESIAN_POINT('',(8.299499323841E-02,9.931528640091));
#284 = CARTESIAN_POINT('',(5.550197119941E-02,9.97480251705));
#285 = CARTESIAN_POINT('',(2.778361666341E-02,9.997640865248));
#286 = CARTESIAN_POINT('',(4.138911435803E-13,9.999857125333));
#287 = ( GEOMETRIC_REPRESENTATION_CONTEXT(2) 
PARAMETRIC_REPRESENTATION_CONTEXT() REPRESENTATION_CONTEXT('2D SPACE',''
  ) );
#288 = PCURVE('',#102,#289);
#289 = DEFINITIONAL_REPRESENTATION('',(#290),#316);
#290 = B_SPLINE_CURVE_WITH_KNOTS('',3,(#291,#292,#293,#294,#295,#296,
    #297,#298,#299,#300,#301,#302,#303,#304,#305,#306,#307,#308,#309,
    #310,#311,#312,#313,#314,#315),.UNSPECIFIED.,.F.,.F.,(4,1,1,1,1,1,1,
    1,1,1,1,1,1,1,1,1,1,1,1,1,1,1,4),(0.,1.30101314706E-02,
    2.60202629412E-02,3.90303944118E-02,5.20405258824E-02,
    6.505065735301E-02,7.806078882361E-02,9.107092029421E-02,
    0.104081051765,0.117091183235,0.130101314706,0.143111446177,
    0.156121577647,0.169131709118,0.182141840588,0.195151972059,
    0.20816210353,0.221172235,0.234182366471,0.247192497941,
    0.260202629412,0.273212760883,0.286222892353),
  .QUASI_UNIFORM_KNOTS.);
#291 = CARTESIAN_POINT('',(6.28318530718,-8.524726762325));
#292 = CARTESIAN_POINT('',(6.277040276957,-8.524726222007));
#293 = CARTESIAN_POINT('',(6.264753350451,-8.525749976736));
#294 = CARTESIAN_POINT('',(6.246332075519,-8.530345079437));
#295 = CARTESIAN_POINT('',(6.227919590081,-8.537987157446));
#296 = CARTESIAN_POINT('',(6.209515703007,-8.54865482479));
#297 = CARTESIAN_POINT('',(6.191120329691,-8.562320899697));
#298 = CARTESIAN_POINT('',(6.172733518666,-8.578951622763));
#299 = CARTESIAN_POINT('',(6.154355464471,-8.59850692941));
#300 = CARTESIAN_POINT('',(6.135986525306,-8.620940455143));
#301 = CARTESIAN_POINT('',(6.117627240335,-8.646199628557));
#302 = CARTESIAN_POINT('',(6.099278349513,-8.674225753776));
#303 = CARTESIAN_POINT('',(6.080940810427,-8.704954120623));
#304 = CARTESIAN_POINT('',(6.062615832126,-8.738314087704));
#305 = CARTESIAN_POINT('',(6.04430485234,-8.774229319315));
#306 = CARTESIAN_POINT('',(6.026009733212,-8.812617507376));
#307 = CARTESIAN_POINT('',(6.007732149318,-8.853392072689));
#308 = CARTESIAN_POINT('',(5.989475998406,-8.896456537071));
#309 = CARTESIAN_POINT('',(5.971237431254,-8.941728980112));
#310 = CARTESIAN_POINT('',(5.953010601851,-8.989132285628));
#311 = CARTESIAN_POINT('',(5.934791568187,-9.03858424222));
#312 = CARTESIAN_POINT('',(5.916575986921,-9.090003139581));
#313 = CARTESIAN_POINT('',(5.898359714603,-9.143306411345));
#314 = CARTESIAN_POINT('',(5.886212348566,-9.180042713474));
#315 = CARTESIAN_POINT('',(5.880137185726,-9.198697225786));
#316 = ( GEOMETRIC_REPRESENTATION_CONTEXT(2) 
PARAMETRIC_REPRESENTATION_CONTEXT() REPRESENTATION_CONTEXT('2D SPACE',''
  ) );
#317 = ORIENTED_EDGE('',*,*,#150,.T.);
#318 = ORIENTED_EDGE('',*,*,#55,.T.);
#319 = ADVANCED_FACE('',(#320),#102,.F.);
#320 = FACE_BOUND('',#321,.F.);
#321 = EDGE_LOOP('',(#322,#323,#324));
#322 = ORIENTED_EDGE('',*,*,#88,.F.);
#323 = ORIENTED_EDGE('',*,*,#207,.T.);
#324 = ORIENTED_EDGE('',*,*,#118,.T.);
#325 = ( GEOMETRIC_REPRESENTATION_CONTEXT(3) 
GLOBAL_UNCERTAINTY_ASSIGNED_CONTEXT((#329)) GLOBAL_UNIT_ASSIGNED_CONTEXT
((#326,#327,#328)) REPRESENTATION_CONTEXT('Context #1',
  '3D Context with UNIT and UNCERTAINTY') );
#326 = ( LENGTH_UNIT() NAMED_UNIT(*) SI_UNIT(.MILLI.,.METRE.) );
#327 = ( NAMED_UNIT(*) PLANE_ANGLE_UNIT() SI_UNIT($,.RADIAN.) );
#328 = ( NAMED_UNIT(*) SI_UNIT($,.STERADIAN.) SOLID_ANGLE_UNIT() );
#329 = UNCERTAINTY_MEASURE_WITH_UNIT(LENGTH_MEASURE(1.E-07),#326,
  'distance_accuracy_value','confusion accuracy');
#330 = PRODUCT_RELATED_PRODUCT_CATEGORY('part',$,(#7));
ENDSEC;
END-ISO-10303-21;
